<?xml version="1.0" encoding="UTF-8"?>
<svg width="24px" height="24px" viewBox="0 0 24 24" version="1.1" xmlns="http://www.w3.org/2000/svg">
    <g stroke="none" stroke-width="1" fill="none" fill-rule="evenodd">
        <path d="M12,12 C13.6568542,12 15,10.6568542 15,9 C15,7.34314575 13.6568542,6 12,6 C10.3431458,6 9,7.34314575 9,9 C9,10.6568542 10.3431458,12 12,12 Z M12,14 C9.23857625,14 7,11.7614237 7,9 C7,6.23857625 9.23857625,4 12,4 C14.7614237,4 17,6.23857625 17,9 C17,11.7614237 14.7614237,14 12,14 Z" fill="#4F46E5"></path>
        <path d="M20,4 L16.45,4 L15.39,2.45 C15.08,2.17 14.7,2 14.3,2 L9.7,2 C9.3,2 8.92,2.17 8.61,2.45 L7.55,4 L4,4 C2.9,4 2,4.9 2,6 L2,18 C2,19.1 2.9,20 4,20 L20,20 C21.1,20 22,19.1 22,18 L22,6 C22,4.9 21.1,4 20,4 Z M20,18 L4,18 L4,6 L8.92,6 L10.32,3.69 C10.71,3.26 11.33,3 12,3 C12.67,3 13.29,3.26 13.68,3.69 L15.08,6 L20,6 L20,18 Z" fill="#4F46E5"></path>
    </g>
</svg> 